<svg id="Capa_1" enable-background="new 0 0 512.486 512.486" height="512" viewBox="0 0 512.486 512.486" width="512" xmlns="http://www.w3.org/2000/svg"><g><g><path d="m490.711 426.62h-132.128c-6.282 0-11.375-5.093-11.375-11.375v-18.097c0-6.282 5.093-11.375 11.375-11.375h132.128c6.282 0 11.375 5.093 11.375 11.375v18.097c-.001 6.282-5.093 11.375-11.375 11.375z" fill="#fee97d"/><path d="m490.711 467.467h-132.128c-6.282 0-11.375-5.093-11.375-11.375v-18.097c0-6.282 5.093-11.375 11.375-11.375h132.128c6.282 0 11.375 5.093 11.375 11.375v18.097c-.001 6.282-5.093 11.375-11.375 11.375z" fill="#fee45a"/><path d="m490.711 508.313h-132.128c-6.282 0-11.375-5.093-11.375-11.375v-18.097c0-6.282 5.093-11.375 11.375-11.375h132.128c6.282 0 11.375 5.093 11.375 11.375v18.097c-.001 6.283-5.093 11.375-11.375 11.375z" fill="#fee97d"/><path d="m296.664 71.8 39.406-48.576c5.115-6.305.628-15.724-7.491-15.724h-49.001c-2.059 0-4.071.622-5.771 1.784l-10.757 7.353c-4.106 2.807-9.513 2.807-13.618 0l-10.757-7.353c-1.7-1.162-3.711-1.784-5.771-1.784h-49.001c-8.119 0-12.607 9.418-7.491 15.724l39.405 48.576 18.13 19.813h46.657z" fill="#e19974"/><g><path d="m213.977 23.224c-5.115-6.305-.628-15.724 7.491-15.724h-37.565c-8.119 0-12.607 9.418-7.491 15.724l39.405 48.576 18.13 19.813h37.565l-18.13-19.813z" fill="#dc8758"/></g><path d="m358.583 467.467c-6.282 0-11.375 5.092-11.375 11.375v18.097c0 6.282 5.093 11.375 11.375 11.375h12.37c20.808-9.771 39.444-23.596 54.939-40.847z" fill="#fee45a"/><path d="m453.384 426.62h-94.801c-6.282 0-11.375 5.092-11.375 11.375v18.097c0 6.282 5.093 11.375 11.375 11.375h67.308c10.8-12.024 20.072-25.713 27.493-40.847z" fill="#fed402"/><path d="m358.583 385.773c-6.282 0-11.375 5.092-11.375 11.375v18.098c0 6.282 5.093 11.375 11.375 11.375h94.801c1.275-2.6 2.501-5.238 3.665-7.923 4.688-10.812 8.25-21.829 10.724-32.924h-109.19z" fill="#fee45a"/><path d="m310.891 136.375 98.457 105.143c93.616 99.973 22.729 263.469-114.233 263.469h-76.749c-136.962 0-207.85-163.496-114.233-263.469l98.457-105.143 36.392-36.805h43.591z" fill="#e19974"/><circle cx="256.74" cy="295.447" fill="#fff5c6" r="94.101"/><g><path d="m180.611 464.139c1.378-3.529 2.143-7.363 2.143-11.375v-18.098c0-4.011-.765-7.845-2.143-11.375 1.378-3.529 2.143-7.363 2.143-11.375v-18.096c0-17.327-14.047-31.374-31.374-31.374h-6.87c-10.654 0-19.129-8.832-18.819-19.481 1.032-35.443 14.301-71.328 42.505-101.448l98.458-105.143 24.878-25.161-8.959-11.645h-43.591l-36.392 36.805-98.457 105.143c-93.617 99.974-22.729 263.47 114.233 263.47h64.064c-37.384 0-69.843-12.184-95.38-31.93-2.943-2.276-5.074-5.402-6.421-8.87z" fill="#dc8758"/><path d="m307.668 136.375h-102.855c-8.916 0-16.144-7.228-16.144-16.144 0-8.916 7.228-16.144 16.144-16.144h102.855c8.916 0 16.144 7.228 16.144 16.144 0 8.916-7.228 16.144-16.144 16.144z" fill="#fee97d"/><path d="m296.664 104.087h-80.846c-8.916 0-16.144-7.228-16.144-16.144 0-8.916 7.228-16.144 16.144-16.144h80.846c8.916 0 16.144 7.228 16.144 16.144-.001 8.916-7.228 16.144-16.144 16.144z" fill="#fee97d"/><path d="m225.449 120.231c0-8.916 7.228-16.144 16.144-16.144h-36.779c-8.916 0-16.144 7.228-16.144 16.144s7.228 16.144 16.144 16.144h36.779c-8.916 0-16.144-7.228-16.144-16.144z" fill="#fee45a"/><path d="m236.453 87.943c0-8.916 7.228-16.144 16.144-16.144h-36.779c-8.916 0-16.144 7.228-16.144 16.144s7.228 16.144 16.144 16.144h36.779c-8.916 0-16.144-7.228-16.144-16.144z" fill="#fee45a"/><path d="m151.38 423.293h-132.128c-6.282 0-11.375-5.093-11.375-11.375v-18.098c0-6.282 5.093-11.375 11.375-11.375h132.128c6.282 0 11.375 5.093 11.375 11.375v18.097c-.001 6.283-5.093 11.376-11.375 11.376z" fill="#fee97d"/><path d="m151.38 464.139h-132.128c-6.282 0-11.375-5.093-11.375-11.375v-18.097c0-6.282 5.093-11.375 11.375-11.375h132.128c6.282 0 11.375 5.093 11.375 11.375v18.097c-.001 6.283-5.093 11.375-11.375 11.375z" fill="#fee45a"/><path d="m151.38 504.986h-132.128c-6.282 0-11.375-5.093-11.375-11.375v-18.097c0-6.282 5.093-11.375 11.375-11.375h132.128c6.282 0 11.375 5.093 11.375 11.375v18.097c-.001 6.282-5.093 11.375-11.375 11.375z" fill="#fee97d"/><path d="m44.499 411.918v-18.098c0-6.282 5.093-11.375 11.375-11.375h-36.623c-6.282 0-11.375 5.093-11.375 11.375v18.098c0 6.282 5.093 11.375 11.375 11.375h36.622c-6.282-.001-11.374-5.093-11.374-11.375z" fill="#fee45a"/><path d="m44.499 452.765v-18.098c0-6.282 5.093-11.375 11.375-11.375h-36.623c-6.282 0-11.375 5.093-11.375 11.375v18.098c0 6.282 5.093 11.375 11.375 11.375h36.622c-6.282-.001-11.374-5.094-11.374-11.375z" fill="#fed402"/><path d="m44.499 493.611v-18.098c0-6.282 5.093-11.375 11.375-11.375h-36.623c-6.282 0-11.375 5.093-11.375 11.375v18.098c0 6.282 5.093 11.375 11.375 11.375h36.622c-6.282 0-11.374-5.093-11.374-11.375z" fill="#fee45a"/></g></g><g><path d="m445.58 413.725c26.412-60.918 14.626-128.868-30.758-177.334l-91.939-98.182c4.905-4.107 8.105-10.114 8.405-16.916.287-6.52-2.034-12.701-6.536-17.406-2.069-2.163-4.471-3.873-7.091-5.096 1.687-3.251 2.646-6.938 2.646-10.847 0-8.357-4.363-15.71-10.926-19.916l32.513-40.079c4.206-5.185 5.035-12.149 2.164-18.177-2.872-6.028-8.803-9.772-15.48-9.772h-49.001c-3.584 0-7.043 1.069-10.003 3.093l-10.757 7.353c-1.564 1.071-3.588 1.071-5.154.001l-10.757-7.354c-2.959-2.024-6.418-3.093-10.002-3.093h-49.001c-6.676 0-12.607 3.744-15.479 9.771s-2.042 12.992 2.164 18.177l32.513 40.079c-6.563 4.206-10.926 11.559-10.926 19.916 0 3.951.979 7.675 2.699 10.952-7.801 3.647-13.283 11.264-13.68 20.275-.288 6.52 2.034 12.7 6.536 17.405.748.782 1.543 1.5 2.373 2.163l-52.26 55.809c-2.831 3.023-2.675 7.77.348 10.601 1.447 1.354 3.288 2.025 5.125 2.025 2.002 0 4-.797 5.476-2.374l57.051-60.925h46.854c3.833 0 7.103-2.938 7.511-6.749.441-4.118-2.539-7.814-6.658-8.256-.562-.061-1.117-.057-1.659.005h-47.077c-2.381 0-4.599-.948-6.246-2.669-1.646-1.72-2.494-3.983-2.388-6.375.2-4.545 4.301-8.243 9.141-8.243h10.498 80.846 11.005c2.381 0 4.599.948 6.246 2.669 1.646 1.721 2.494 3.984 2.388 6.376-.2 4.545-4.301 8.243-9.141 8.243h-21.312c-.017-.002-.032-.004-.049-.006-4.103-.496-7.85 2.431-8.348 6.543-.259 2.131.422 4.312 1.846 5.919 1.423 1.606 3.507 2.544 5.653 2.544h22.21c.157 0 .312-.008.468-.011l96.244 102.779c41.233 44.033 51.941 105.769 27.944 161.115-23.996 55.346-76.378 89.728-136.702 89.728h-76.75c-8.591 0-17.153-.689-25.448-2.05-4.08-.671-7.944 2.101-8.615 6.188-.67 4.088 2.1 7.945 6.188 8.615 9.094 1.491 18.473 2.247 27.875 2.247h76.75c66.396-.001 124.05-37.843 150.463-98.761zm-263.615-397.502c.266-.558.817-1.223 1.938-1.223h49.001c.551 0 1.083.165 1.538.476l10.756 7.354c6.708 4.586 15.377 4.586 22.084 0l10.757-7.354c.455-.311.987-.476 1.538-.476h49.001c1.12 0 1.672.665 1.938 1.223.266.559.435 1.406-.271 2.276l-37.154 45.801h-73.7l-37.154-45.801c-.707-.87-.538-1.718-.272-2.276zm33.852 80.364c-4.766 0-8.644-3.878-8.644-8.644s3.877-8.644 8.644-8.644h80.846c4.766 0 8.644 3.878 8.644 8.644s-3.878 8.644-8.644 8.644z"/><path d="m61.633 359.946c.081 0 .163-.001.245-.004 4.14-.133 7.389-3.597 7.256-7.736-1.264-39.433 12.731-75.936 40.474-105.562l11.831-12.634c2.831-3.023 2.675-7.771-.348-10.602-3.023-2.83-7.77-2.675-10.601.348l-11.832 12.635c-30.082 32.125-45.892 73.427-44.517 116.296.13 4.058 3.46 7.259 7.492 7.259z"/><path d="m151.38 374.946h-132.128c-10.408 0-18.875 8.467-18.875 18.874v18.098c0 4.274 1.445 8.208 3.848 11.375-2.404 3.167-3.848 7.101-3.848 11.374v18.098c0 4.274 1.445 8.207 3.848 11.375-2.404 3.167-3.848 7.101-3.848 11.375v18.098c0 10.408 8.467 18.875 18.875 18.875h132.128c10.407 0 18.875-8.467 18.875-18.875v-18.098c0-4.274-1.445-8.207-3.848-11.375 2.404-3.167 3.848-7.101 3.848-11.375v-18.098c0-4.273-1.444-8.207-3.848-11.374 2.404-3.167 3.848-7.101 3.848-11.375v-18.098c-.001-10.407-8.468-18.874-18.875-18.874zm-136.003 18.874c0-2.136 1.738-3.874 3.875-3.874h132.128c2.136 0 3.875 1.738 3.875 3.874v18.098c0 2.137-1.738 3.875-3.875 3.875h-132.128c-2.137 0-3.875-1.738-3.875-3.875zm139.877 40.847v18.098c0 2.137-1.738 3.875-3.875 3.875h-132.127c-2.137 0-3.875-1.738-3.875-3.875v-18.098c0-2.136 1.738-3.874 3.875-3.874h132.128c2.136 0 3.874 1.738 3.874 3.874zm0 58.944c0 2.137-1.738 3.875-3.875 3.875h-132.127c-2.137 0-3.875-1.738-3.875-3.875v-18.098c0-2.136 1.738-3.874 3.875-3.874h132.128c2.136 0 3.875 1.738 3.875 3.874v18.098z"/><path d="m512.11 393.82c0-10.407-8.467-18.874-18.874-18.874h-14.609c-4.143 0-7.5 3.357-7.5 7.5s3.357 7.5 7.5 7.5h14.609c2.136 0 3.874 1.738 3.874 3.874v18.098c0 2.136-1.738 3.874-3.874 3.874h-27.293c-4.143 0-7.5 3.357-7.5 7.5s3.357 7.5 7.5 7.5h27.293c2.136 0 3.874 1.738 3.874 3.875v18.098c0 2.137-1.738 3.875-3.874 3.875h-51.635c-4.143 0-7.5 3.357-7.5 7.5s3.357 7.5 7.5 7.5h51.635c2.136 0 3.874 1.738 3.874 3.874v18.098c0 2.136-1.738 3.874-3.874 3.874h-95.888c-4.143 0-7.5 3.357-7.5 7.5s3.357 7.5 7.5 7.5h95.888c10.407 0 18.874-8.467 18.874-18.874v-18.098c0-4.274-1.444-8.207-3.848-11.375 2.404-3.167 3.848-7.101 3.848-11.375v-18.098c0-4.274-1.444-8.207-3.848-11.375 2.404-3.167 3.848-7.101 3.848-11.375z"/><path d="m255.617 366.669c4.143 0 7.5-3.357 7.5-7.5v-7.643c15.601-3.261 24.72-16.214 26.756-28.322 2.646-15.738-5.584-29.42-20.964-34.856-1.904-.673-3.85-1.377-5.792-2.108v-31.851c4.632 1.258 7.385 3.578 7.647 3.808 3.048 2.755 7.752 2.547 10.543-.479 2.809-3.045 2.617-7.79-.428-10.598-.396-.366-6.98-6.291-17.763-8.051v-6.268c0-4.143-3.357-7.5-7.5-7.5-4.142 0-7.5 3.357-7.5 7.5v6.827c-.91.21-1.83.443-2.77.726-10.151 3.059-17.736 11.74-19.793 22.657-1.879 9.972 1.327 19.597 8.368 25.119 3.619 2.838 8.098 5.438 14.194 8.172v40.814c-5.2-.449-8.626-1.818-14.373-5.576-3.466-2.268-8.114-1.296-10.382 2.171-2.268 3.466-1.296 8.114 2.171 10.382 8.813 5.765 14.889 7.563 22.583 8.053v7.023c.003 4.143 3.361 7.5 7.503 7.5zm-12.437-90.342c-2.578-2.021-3.71-6.158-2.884-10.538.72-3.822 3.152-8.37 7.822-10.478v24.242c-1.844-1.038-3.518-2.112-4.938-3.226zm20.73 26.163c12.467 4.406 11.701 15.065 11.17 18.228-1.008 5.999-5.073 12.358-11.963 15.141v-33.653c.268.095.522.188.793.284z"/><path d="m343.288 333.193c3.917 1.354 8.185-.732 9.533-4.648 3.663-10.636 5.521-21.771 5.521-33.098 0-56.023-45.578-101.602-101.602-101.602s-101.602 45.578-101.602 101.602 45.578 101.602 101.602 101.602c31.001 0 59.913-13.895 79.323-38.12 2.591-3.232 2.069-7.952-1.163-10.543-3.233-2.59-7.953-2.067-10.543 1.164-16.548 20.653-41.193 32.499-67.617 32.499-47.752 0-86.602-38.85-86.602-86.602s38.849-86.602 86.602-86.602c47.752 0 86.602 38.85 86.602 86.602 0 9.661-1.582 19.153-4.702 28.213-1.35 3.916.732 8.185 4.648 9.533z"/></g></g></svg>